<svg width="424" height="525" viewBox="0 0 424 525" fill="none" xmlns="http://www.w3.org/2000/svg">
<g clip-path="url(#clip0_78_707)">
<path opacity="0.3" d="M331.828 393.676C323.615 404.159 316.267 410.32 310.64 414.972C255.767 460.339 193.041 447.263 173.648 442.794C142.359 435.583 115.947 430.496 93.254 405.111C41.6893 347.427 44.1973 227.094 83.599 152.553C88.2709 143.714 127.613 71.5055 190.475 61.3307C192.012 61.0818 193.16 60.9401 194.164 60.8084C203.889 59.5335 264.15 52.805 313.288 103.778C320.321 111.075 331.641 124.236 342.137 144.309C380.518 217.705 380.64 331.379 331.828 393.676Z" fill="url(#paint0_linear_78_707)"/>
<path d="M67.5116 436.767H63.5884C62.3578 436.767 61.3524 435.55 61.3243 434.027L59.6634 343.904C59.6344 342.331 60.6565 341.036 61.9275 341.036H68.5238C69.7869 341.036 70.8059 342.316 70.7883 343.88L69.776 434.002C69.7588 435.535 68.75 436.767 67.5116 436.767Z" fill="url(#paint1_linear_78_707)"/>
<path d="M139.74 436.767H135.816C134.586 436.767 133.58 435.594 133.552 434.125L131.892 347.221C131.863 345.704 132.885 344.456 134.156 344.456H140.752C142.015 344.456 143.034 345.689 143.016 347.197L142.004 434.101C141.987 435.579 140.978 436.767 139.74 436.767Z" fill="url(#paint2_linear_78_707)"/>
<path d="M143.79 364.126H58.5689V341.063H142.312C143.128 341.063 143.79 341.882 143.79 342.892L143.79 364.126Z" fill="url(#paint3_linear_78_707)"/>
<path d="M75.7843 364.126H61.1972C59.7235 364.126 58.5074 362.698 58.429 360.876L54.2137 262.908C54.0937 260.119 55.9522 257.817 58.2043 257.964L58.5465 257.987C65.9254 258.469 71.8147 265.782 72.1835 274.92L75.7843 364.126Z" fill="url(#paint4_linear_78_707)"/>
<path d="M128.696 354.863C140.559 375.108 137.148 396.963 113.357 411.667C111.683 409.781 111.212 408.015 112.895 404.027C131.852 387.126 128.952 371.787 117.296 362.047L128.696 354.863Z" fill="url(#paint5_linear_78_707)"/>
<path d="M103.922 364.076C113.421 385.058 111.343 401.431 84.0381 412.274C82.5427 407.488 83.1638 404.834 85.4819 403.889C106.15 391.031 100.879 380.929 90.6183 370.026L103.922 364.076Z" fill="url(#paint6_linear_78_707)"/>
<path d="M84.0411 404.886C83.2624 408.936 83.6235 411.033 86.1033 411.872C87.5991 418.505 86.7741 422.178 84.2135 423.637C81.0265 418.029 78.6124 412.009 77.8292 405.123C80.1959 404.038 83.4763 403.094 84.0411 404.886Z" fill="url(#paint7_linear_78_707)"/>
<path d="M112.895 404.027C112.121 408.053 112.479 410.138 114.945 410.971C116.431 417.566 115.611 421.217 113.066 422.667C109.898 417.092 107.498 411.108 106.72 404.263C109.072 403.184 112.333 402.246 112.895 404.027Z" fill="url(#paint8_linear_78_707)"/>
<path d="M78.1513 323.427C76.5327 337.109 81.774 357.417 90.4781 371.648C96.6501 372.493 103.349 371.766 108.527 367.735L101.976 349.345L105.064 348.205L117.9 364.497C123.684 365.548 127.549 361.915 132.069 358.249C127.037 344.513 115.591 338.097 112.639 318.91L78.1513 323.427Z" fill="url(#paint9_linear_78_707)"/>
<path d="M116.344 324.19C105.113 328.61 91.5814 329.06 76.6453 327.087L79.0569 289.376C79.0569 289.376 76.0888 263.1 89.6309 260.184C97.6077 257.498 97.6077 257.523 97.6077 257.523C97.6077 257.523 107.811 255.557 116.344 260.221C124.877 264.885 131.927 292.915 131.927 292.915L121.724 297.971L119.127 287.537L116.344 324.19Z" fill="url(#paint10_linear_78_707)"/>
<path fill-rule="evenodd" clip-rule="evenodd" d="M120.599 232.922C120.599 232.922 119.502 229.093 122.296 228.411C125.089 227.728 122.425 237.894 122.425 237.894L120.599 232.922Z" fill="url(#paint11_linear_78_707)"/>
<path fill-rule="evenodd" clip-rule="evenodd" d="M98.2637 243.31L97.1603 258.314C97.1603 258.314 103.556 262.941 109.058 258.896L108.081 245.791L98.2637 243.31Z" fill="url(#paint12_linear_78_707)"/>
<path fill-rule="evenodd" clip-rule="evenodd" d="M121.89 232.642C121.89 232.642 124.693 226.699 121.123 223.574C121.123 223.574 123.038 218.344 119.416 214.562C119.416 214.562 113.647 197.844 101.538 209.571C101.538 209.571 91.1113 205.732 87.7571 221.787C87.7571 221.787 84.29 224.196 85.8779 230.194C85.8779 230.194 85.4885 252.444 101.227 244.944L121.89 232.642Z" fill="url(#paint13_linear_78_707)"/>
<path fill-rule="evenodd" clip-rule="evenodd" d="M116.707 220.214C116.707 220.214 130.049 245.106 116.264 252.73C103.255 259.926 97.7731 243.397 97.7731 243.397C97.7731 243.397 92.0524 236.058 93.974 230.408C95.8956 224.758 113.456 217.121 116.707 220.214Z" fill="url(#paint14_linear_78_707)"/>
<path fill-rule="evenodd" clip-rule="evenodd" d="M96.4722 239.477C96.4722 239.477 109.53 234.359 108.413 224.81C108.413 224.81 110.675 225.09 111.369 221.791C111.369 221.791 117.777 228.929 119.466 223.938C119.466 223.938 118.344 211.579 110.515 215.584C102.687 219.589 95.536 223.662 93.4403 226.513C91.3447 229.365 89.6049 236.264 96.4722 239.477Z" fill="url(#paint15_linear_78_707)"/>
<path fill-rule="evenodd" clip-rule="evenodd" d="M99.4854 245.619L97.1659 237.724C97.1659 237.724 92.6838 235.174 93.2741 239.469C93.8643 243.764 97.892 246.137 99.4854 245.619Z" fill="url(#paint16_linear_78_707)"/>
<path d="M255.056 442.834H261.827C263.951 442.834 265.686 440.908 265.735 438.497L268.601 295.872C268.651 293.382 266.887 291.333 264.694 291.333H253.309C251.129 291.333 249.371 293.357 249.401 295.832L251.148 438.458C251.178 440.885 252.919 442.834 255.056 442.834Z" fill="url(#paint17_linear_78_707)"/>
<path d="M107.919 443.051H115.487C117.39 443.051 118.945 441.325 118.989 439.165L121.874 295.617C121.918 293.386 120.338 291.55 118.372 291.55H106.161C104.207 291.55 102.631 293.364 102.658 295.582L104.417 439.13C104.444 441.304 106.004 443.051 107.919 443.051Z" fill="url(#paint18_linear_78_707)"/>
<path d="M104.301 317.229H266.572C269.561 317.229 271.983 314.229 271.983 310.529V298.033C271.983 294.332 269.561 291.332 266.572 291.332H104.301C101.312 291.332 98.8893 294.332 98.8893 298.033V310.529C98.8893 314.229 101.312 317.229 104.301 317.229Z" fill="url(#paint19_linear_78_707)"/>
<path d="M109.89 290.82L109.348 277.478L126.71 274.532C126.71 274.532 132.285 244.611 138.202 241.735C144.119 238.86 143.296 241.175 143.094 241.801C142.891 242.427 139.427 244.068 139.427 244.068C139.427 244.068 143.332 243.06 143.029 244.493C142.727 245.926 138.73 247.808 138.73 247.808C138.73 247.808 143.471 246.982 142.497 248.406C141.523 249.829 139.007 250.125 139.007 250.125C139.007 250.125 142.188 249.16 141.798 250.692C141.408 252.224 138.547 253.438 138.547 253.438C138.547 253.438 138.694 257.551 138.049 259.546C137.403 261.541 134.951 283.66 132.089 286.462C129.227 289.263 109.89 290.82 109.89 290.82Z" fill="url(#paint20_linear_78_707)"/>
<path d="M110.607 292.658C109.672 286.77 109.054 281.256 109.84 277.394C101.414 275.277 93.2815 273.059 88.5355 269.683C79.5432 261.124 79.0763 274.671 79.057 289.376C88.9932 292.352 99.5687 293.256 110.607 292.658Z" fill="url(#paint21_linear_78_707)"/>
<path d="M145.42 290.82H177.369C178.082 290.82 178.66 290.105 178.66 289.222V249.662C178.66 248.78 178.082 248.064 177.369 248.064H145.42C144.707 248.064 144.129 248.78 144.129 249.662V289.222C144.129 290.105 144.707 290.82 145.42 290.82Z" fill="url(#paint22_linear_78_707)"/>
<path d="M179.595 290.82H211.759C212.413 290.82 212.942 290.164 212.942 289.355V249.53C212.942 248.72 212.413 248.064 211.759 248.064H179.595C178.942 248.064 178.412 248.72 178.412 249.53V289.355C178.412 290.164 178.942 290.82 179.595 290.82Z" fill="url(#paint23_linear_78_707)"/>
<path d="M214.071 290.82H246.345C246.968 290.82 247.473 290.195 247.473 289.424V249.461C247.473 248.689 246.968 248.064 246.345 248.064H214.071C213.448 248.064 212.943 248.69 212.943 249.461V289.424C212.943 290.195 213.448 290.82 214.071 290.82Z" fill="url(#paint24_linear_78_707)"/>
<path d="M181.23 248.731H213.643C214.228 248.731 214.702 248.143 214.702 247.419V207.286C214.702 206.561 214.227 205.974 213.643 205.974H181.23C180.645 205.974 180.171 206.562 180.171 207.286V247.419C180.171 248.143 180.645 248.731 181.23 248.731Z" fill="url(#paint25_linear_78_707)"/>
<path d="M147.092 248.064H178.719C179.521 248.064 180.171 247.259 180.171 246.267V207.105C180.171 206.113 179.521 205.308 178.719 205.308H147.092C146.29 205.308 145.64 206.113 145.64 207.105V246.267C145.64 247.259 146.29 248.064 147.092 248.064Z" fill="url(#paint26_linear_78_707)"/>
<g opacity="0.3">
<path d="M140.426 93.7224C139.962 94.2638 139.232 94.2375 138.795 93.6639C137.946 92.5497 137.045 91.4644 136.117 90.4385C135.648 89.9195 135.602 89.0318 136.011 88.4434C136.016 88.4364 136.021 88.4294 136.025 88.4223C136.45 87.8342 137.179 87.7834 137.654 88.3088C138.63 89.3888 139.579 90.5311 140.473 91.7042C140.882 92.2404 140.889 93.066 140.509 93.6134C140.483 93.6512 140.456 93.6877 140.426 93.7224ZM131.325 85.8284C130.294 84.969 129.223 84.1562 128.141 83.4117C127.585 83.0289 127.384 82.1595 127.693 81.4702C128.006 80.7796 128.705 80.5328 129.262 80.9161C130.4 81.699 131.527 82.5547 132.613 83.4587C133.141 83.8989 133.281 84.7865 132.925 85.4407C132.9 85.4882 132.872 85.5332 132.842 85.5755C132.467 86.1167 131.815 86.2365 131.325 85.8284ZM122.647 80.2289C121.49 79.6769 120.3 79.1804 119.109 78.7535C118.497 78.5343 118.145 77.7423 118.322 76.9849C118.499 76.2286 119.138 75.7916 119.75 76.0105C121.005 76.4602 122.259 76.9831 123.477 77.5644C124.071 77.848 124.367 78.6744 124.138 79.4103C124.089 79.567 124.02 79.7071 123.937 79.8277C123.628 80.2726 123.115 80.452 122.647 80.2289ZM113.176 77.1731C111.947 76.9549 110.697 76.8005 109.459 76.7135C108.823 76.6687 108.336 75.9941 108.373 75.207C108.409 74.4198 108.954 73.8184 109.589 73.8624C110.893 73.9542 112.21 74.117 113.503 74.3461C114.133 74.458 114.571 75.1815 114.481 75.9619C114.448 76.2413 114.353 76.4901 114.215 76.6893C113.966 77.0468 113.581 77.2446 113.176 77.1731ZM103.391 76.8062C102.157 76.9311 100.909 77.1232 99.6834 77.3779C99.0551 77.5079 98.4607 76.9831 98.3554 76.2055C98.2499 75.4273 98.6742 74.6913 99.3024 74.5616C100.592 74.2938 101.905 74.0916 103.203 73.9602C103.838 73.8956 104.395 74.4808 104.446 75.2669C104.473 75.6629 104.366 76.0344 104.172 76.3137C103.981 76.5888 103.706 76.7744 103.391 76.8062ZM93.7844 79.1292C92.6012 79.5895 91.4196 80.1188 90.2717 80.702C89.6826 81.0012 89.0088 80.6526 88.7672 79.9234C88.5252 79.1937 88.8065 78.3597 89.396 78.06C90.6038 77.446 91.848 76.8893 93.093 76.4047C93.7007 76.1686 94.3478 76.5866 94.5388 77.339C94.663 77.8276 94.5636 78.3369 94.3124 78.6987C94.177 78.894 93.9975 79.0464 93.7844 79.1292ZM63.4895 116.603C62.878 116.382 62.5266 115.59 62.7048 114.832C63.0698 113.282 63.4946 111.729 63.9672 110.219C64.1974 109.484 64.8653 109.119 65.4592 109.404C66.0528 109.688 66.3476 110.516 66.1176 111.251C65.6688 112.685 65.2657 114.159 64.9193 115.631C64.8717 115.834 64.7914 116.012 64.6874 116.162C64.4016 116.574 63.9378 116.765 63.4895 116.603ZM84.838 84.0283C83.7678 84.8025 82.7116 85.6437 81.6992 86.529C81.1786 86.9837 80.4591 86.8302 80.0919 86.186C79.7243 85.5414 79.8506 84.6536 80.3691 84.196C81.4355 83.2638 82.5476 82.3778 83.6748 81.5626C84.2247 81.165 84.9308 81.3942 85.2523 82.0753C85.5072 82.6153 85.4432 83.2773 85.1314 83.7264C85.05 83.8435 84.9516 83.9458 84.838 84.0283ZM67.1303 105.004C66.5743 104.619 66.3752 103.749 66.6857 103.061C67.3218 101.65 68.0156 100.256 68.7471 98.9145C69.1016 98.2585 69.8204 98.0895 70.3482 98.5304C70.8759 98.9718 71.0146 99.8594 70.6583 100.513C69.9631 101.787 69.3036 103.113 68.6994 104.453C68.6609 104.539 68.616 104.617 68.5664 104.689C68.2163 105.193 67.617 105.34 67.1303 105.004ZM77.0017 91.2787C76.099 92.3294 75.2209 93.4419 74.392 94.5864C73.9669 95.174 73.2379 95.2229 72.7636 94.6964C72.2958 94.1768 72.2509 93.2906 72.6587 92.7031C72.664 92.6954 72.6695 92.6877 72.6751 92.6804C73.5473 91.4752 74.4716 90.3036 75.4217 89.1976C75.886 88.6578 76.6158 88.6856 77.052 89.2603C77.4594 89.7969 77.4664 90.621 77.0871 91.1676C77.0606 91.2059 77.0319 91.243 77.0017 91.2787Z" fill="url(#paint27_linear_78_707)"/>
<path d="M63.1352 126.003C63.2832 125.789 63.3823 125.52 63.4071 125.219C63.4677 124.487 63.5419 123.744 63.6269 123.011C63.7177 122.23 63.2801 121.506 62.6499 121.394C62.0195 121.281 61.4341 121.823 61.3443 122.604C61.2545 123.375 61.1767 124.157 61.1127 124.927C61.0477 125.711 61.5086 126.413 62.1417 126.493C62.5326 126.543 62.8974 126.345 63.1352 126.003Z" fill="url(#paint28_linear_78_707)"/>
</g>
<g opacity="0.3">
<path d="M73.4862 167.605C73.8489 167.082 73.8621 166.297 73.4914 165.754C73.1075 165.192 72.7266 164.61 72.3596 164.025C71.9687 163.403 71.2442 163.29 70.7415 163.774C70.2365 164.26 70.148 165.155 70.5386 165.778C70.9251 166.393 71.3262 167.006 71.7303 167.598C72.1415 168.2 72.8691 168.275 73.3555 167.766C73.4032 167.716 73.4467 167.662 73.4862 167.605Z" fill="url(#paint29_linear_78_707)"/>
<path d="M140.312 170.106C139.874 170.679 139.144 170.703 138.681 170.159C138.219 169.617 138.201 168.715 138.639 168.141C139.473 167.052 140.283 165.901 141.055 164.71C141.45 164.096 142.18 163.997 142.677 164.49C143.173 164.984 143.253 165.883 142.854 166.498C142.519 167.014 142.179 167.521 141.833 168.02C141.34 168.731 140.828 169.433 140.312 170.106ZM144.864 160.602C144.319 160.196 144.142 159.319 144.469 158.643C145.099 157.345 145.69 156 146.228 154.646C146.507 153.938 147.2 153.646 147.772 153.994C148.343 154.341 148.579 155.197 148.298 155.905C147.732 157.331 147.109 158.747 146.446 160.113C146.412 160.184 146.374 160.249 146.332 160.31C145.972 160.828 145.353 160.965 144.864 160.602ZM135.685 175.372C134.684 176.364 133.634 177.317 132.565 178.203C132.035 178.642 131.319 178.467 130.964 177.811C130.61 177.156 130.752 176.27 131.281 175.83C132.297 174.989 133.293 174.084 134.245 173.142C134.742 172.649 135.468 172.749 135.866 173.365C136.218 173.909 136.195 174.676 135.84 175.186C135.794 175.253 135.743 175.315 135.685 175.372ZM149.22 149.607C148.615 149.36 148.287 148.552 148.487 147.804C148.87 146.369 149.208 144.896 149.492 143.427C149.64 142.659 150.262 142.187 150.882 142.37C151.501 142.554 151.883 143.324 151.735 144.091C151.436 145.638 151.08 147.189 150.677 148.7C150.628 148.882 150.552 149.045 150.457 149.182C150.161 149.608 149.677 149.794 149.22 149.607ZM127.119 182.076C125.966 182.771 124.773 183.414 123.573 183.988C122.979 184.272 122.312 183.906 122.082 183.171C121.852 182.435 122.148 181.608 122.742 181.324C123.882 180.779 125.015 180.168 126.11 179.508C126.683 179.163 127.373 179.458 127.652 180.167C127.859 180.696 127.78 181.305 127.489 181.723C127.39 181.867 127.265 181.988 127.119 182.076ZM117.574 186.291C116.323 186.658 115.045 186.964 113.776 187.2C113.146 187.317 112.559 186.78 112.464 186C112.37 185.219 112.803 184.492 113.433 184.376C114.639 184.151 115.854 183.861 117.042 183.513C117.662 183.331 118.283 183.806 118.43 184.573C118.518 185.036 118.414 185.499 118.182 185.834C118.029 186.054 117.82 186.219 117.574 186.291ZM107.512 187.831C106.226 187.851 104.925 187.805 103.645 187.694C103.01 187.638 102.531 186.955 102.576 186.169C102.621 185.381 103.172 184.789 103.807 184.845C105.024 184.951 106.26 184.995 107.482 184.975C108.119 184.965 108.642 185.596 108.65 186.384C108.654 186.746 108.549 187.078 108.372 187.333C108.164 187.633 107.857 187.825 107.512 187.831ZM97.4196 186.616C96.161 186.288 94.8991 185.89 93.6691 185.432C93.0591 185.205 92.7132 184.409 92.8966 183.654C93.0796 182.9 93.7232 182.471 94.333 182.698C95.5007 183.132 96.6989 183.51 97.8946 183.822C98.5178 183.984 98.9166 184.741 98.7854 185.512C98.7439 185.756 98.6548 185.972 98.5323 186.148C98.2672 186.531 97.8462 186.727 97.4196 186.616ZM87.7841 182.683C86.6177 182.021 85.4586 181.289 84.3388 180.506C83.7842 180.119 83.5882 179.248 83.9014 178.561C84.2138 177.877 84.9177 177.632 85.4724 178.019C86.5361 178.763 87.637 179.458 88.7449 180.087C89.3237 180.415 89.5781 181.263 89.3129 181.98C89.2667 182.104 89.2079 182.217 89.139 182.316C88.8126 182.787 88.2622 182.954 87.7841 182.683ZM79.0904 176.233C78.3371 175.525 77.5922 174.78 76.8764 174.018C76.6171 173.743 76.3614 173.464 76.1083 173.183C75.6347 172.656 75.5809 171.75 76.0211 171.167C76.4463 170.58 77.1755 170.531 77.6496 171.058C77.8899 171.325 78.1334 171.591 78.3797 171.853C79.0602 172.577 79.7679 173.285 80.4842 173.958C80.9916 174.434 81.0908 175.33 80.7059 175.958C80.6914 175.982 80.6765 176.005 80.6611 176.027C80.2668 176.595 79.5785 176.691 79.0904 176.233Z" fill="url(#paint30_linear_78_707)"/>
<path d="M152.504 137.169C152.653 136.954 152.753 136.682 152.777 136.378C152.837 135.609 152.886 134.823 152.921 134.044C152.957 133.256 152.471 132.582 151.835 132.538C151.199 132.494 150.654 133.095 150.619 133.883C150.585 134.624 150.539 135.37 150.481 136.101C150.419 136.885 150.883 137.584 151.517 137.66C151.905 137.707 152.268 137.51 152.504 137.169Z" fill="url(#paint31_linear_78_707)"/>
</g>
<path d="M139.965 118.244C139.925 117.964 139.746 117.746 139.518 117.702L133.038 116.442C131.827 112.958 130.158 109.688 128.052 106.784L129.845 98.9762C129.908 98.7022 129.823 98.4093 129.635 98.2462L123.181 92.6729C122.992 92.5099 122.741 92.5131 122.555 92.6808L117.257 97.4612C114.328 96.0172 111.273 95.208 108.214 95.0044L105.021 87.9096C104.909 87.6609 104.682 87.5275 104.456 87.5776L96.7097 89.2869C96.4834 89.3368 96.3074 89.5591 96.2719 89.8404L95.2548 97.8645C92.441 99.3639 89.8 101.43 87.4544 104.038L81.1488 101.819C80.9275 101.741 80.6908 101.845 80.5594 102.079L76.0581 110.07C75.9266 110.303 75.9293 110.614 76.0647 110.844L79.9253 117.405C78.7591 121.031 78.1057 124.814 77.9413 128.601L72.2114 132.555C72.0106 132.694 71.9027 132.975 71.9432 133.255L73.3237 142.846C73.3641 143.127 73.5436 143.344 73.7706 143.389L80.2511 144.648C81.462 148.132 83.1306 151.402 85.2369 154.307L83.4444 162.114C83.3815 162.388 83.4658 162.681 83.6545 162.844L90.1082 168.418C90.2969 168.581 90.5481 168.577 90.7338 168.41L96.032 163.629C98.9609 165.073 102.016 165.883 105.075 166.086L108.268 173.181C108.38 173.43 108.607 173.563 108.833 173.513L116.579 171.804C116.806 171.754 116.982 171.531 117.017 171.25L118.034 163.226C120.848 161.727 123.489 159.66 125.835 157.052L132.14 159.272C132.361 159.35 132.598 159.245 132.73 159.012L137.231 151.021C137.362 150.787 137.36 150.476 137.224 150.246L133.364 143.686C134.53 140.059 135.183 136.277 135.348 132.489L141.078 128.535C141.279 128.397 141.386 128.116 141.346 127.835L139.965 118.244Z" fill="url(#paint32_linear_78_707)"/>
<g opacity="0.3">
<path d="M189.206 81.1876C189.407 80.8982 189.439 80.4696 189.263 80.133C188.934 79.5049 188.585 78.8804 188.226 78.2773C187.993 77.8853 187.547 77.8018 187.23 78.0908C186.912 78.3786 186.846 78.9319 187.079 79.3239C187.422 79.8986 187.754 80.4938 188.068 81.0932C188.282 81.5016 188.723 81.6179 189.053 81.3534C189.112 81.306 189.162 81.25 189.206 81.1876Z" fill="url(#paint33_linear_78_707)"/>
<path d="M185.765 75.9243C185.48 76.2591 185.029 76.2448 184.758 75.8912C184.075 74.9997 183.346 74.1411 182.594 73.3401C182.435 73.1711 182.274 73.0038 182.111 72.838C181.808 72.5284 181.764 71.9727 182.014 71.5967C182.262 71.2528 182.713 71.1673 183.017 71.4768C183.188 71.6506 183.356 71.8256 183.522 72.0024C184.311 72.8421 185.075 73.7424 185.791 74.6776C186.045 75.0083 186.051 75.5196 185.815 75.8585C185.8 75.8811 185.783 75.9028 185.765 75.9243ZM179.184 70.2063C178.169 69.4057 177.105 68.6756 176.021 68.0371C175.666 67.8276 175.515 67.3023 175.684 66.8619C175.853 66.4246 176.278 66.235 176.633 66.4444C177.769 67.1135 178.885 67.8786 179.949 68.7184C180.281 68.9802 180.379 69.5252 180.168 69.9365C180.149 69.9724 180.128 70.0064 180.106 70.0381C179.879 70.3655 179.487 70.4446 179.184 70.2063ZM172.664 66.369C171.523 65.9015 170.346 65.5181 169.166 65.2287C168.78 65.1342 168.529 64.6701 168.606 64.1926C168.683 63.7135 169.056 63.4035 169.443 63.4985C170.68 63.8016 171.915 64.2046 173.111 64.6943C173.484 64.8474 173.688 65.3463 173.564 65.8086C173.533 65.9211 173.487 66.0215 173.428 66.1062C173.245 66.369 172.946 66.4843 172.664 66.369ZM165.581 64.6326C164.38 64.5256 163.163 64.51 161.965 64.587C161.572 64.6119 161.237 64.238 161.217 63.7517C161.197 63.2666 161.498 62.8508 161.891 62.8253C163.148 62.745 164.424 62.7612 165.683 62.8733C166.076 62.9081 166.371 63.3308 166.343 63.8166C166.331 64.0123 166.269 64.1886 166.173 64.3272C166.031 64.5318 165.815 64.6534 165.581 64.6326ZM158.371 65.0898C157.185 65.3475 156.003 65.6984 154.854 66.1327C154.478 66.2751 154.08 66.0126 153.965 65.5466C153.85 65.0807 154.061 64.5873 154.438 64.4458C155.642 63.9905 156.882 63.6229 158.124 63.3522C158.511 63.2684 158.881 63.5886 158.949 64.0679C158.987 64.3389 158.921 64.6027 158.787 64.7961C158.684 64.9453 158.539 65.0528 158.371 65.0898ZM151.468 67.7005C150.371 68.3067 149.293 69.0035 148.266 69.7723C147.93 70.0242 147.492 69.8906 147.289 69.4739C147.085 69.0571 147.193 68.5167 147.53 68.2626C148.606 67.4565 149.737 66.7253 150.888 66.0894C151.247 65.8916 151.668 66.0908 151.828 66.5354C151.944 66.8574 151.892 67.2196 151.718 67.4701C151.652 67.5659 151.568 67.6457 151.468 67.7005ZM145.294 72.3202C144.353 73.2386 143.446 74.2425 142.598 75.3046C142.321 75.6506 141.871 75.6539 141.591 75.3116C141.311 74.9695 141.313 74.4167 141.585 74.0639C142.474 72.951 143.425 71.8984 144.412 70.9352C144.721 70.634 145.169 70.6995 145.412 71.082C145.626 71.4182 145.611 71.8885 145.393 72.2019C145.364 72.2442 145.331 72.2841 145.294 72.3202ZM137.215 82.696C136.876 82.448 136.764 81.9076 136.964 81.4882C137.519 80.3277 138.134 79.1848 138.791 78.0942C138.89 77.9277 138.991 77.7641 139.092 77.6006C139.322 77.2085 139.78 77.1437 140.092 77.4427C140.403 77.7406 140.46 78.294 140.22 78.6799C140.124 78.8325 140.03 78.987 139.935 79.1456C139.306 80.1893 138.719 81.2793 138.19 82.3859C138.169 82.4316 138.144 82.4739 138.117 82.5124C137.896 82.831 137.516 82.917 137.215 82.696Z" fill="url(#paint34_linear_78_707)"/>
</g>
<g opacity="0.3">
<path d="M186.497 126.093C185.675 127.246 184.79 128.345 183.866 129.364C183.572 129.687 183.122 129.655 182.86 129.291C182.598 128.926 182.629 128.37 182.919 128.045C183.801 127.075 184.645 126.025 185.429 124.926C185.689 124.56 186.139 124.526 186.434 124.848C186.726 125.168 186.756 125.719 186.503 126.084C186.503 126.084 186.499 126.09 186.497 126.093ZM187.802 122.678C187.478 122.402 187.396 121.852 187.619 121.452C188.29 120.245 188.909 118.975 189.458 117.679C189.64 117.251 190.071 117.081 190.419 117.308C190.768 117.534 190.902 118.066 190.719 118.498C190.144 119.857 189.496 121.187 188.792 122.451C188.777 122.478 188.762 122.503 188.745 122.527C188.511 122.864 188.105 122.936 187.802 122.678ZM180.931 132.217C179.908 133.09 178.834 133.893 177.738 134.604C177.39 134.83 176.959 134.663 176.777 134.232C176.594 133.8 176.728 133.27 177.077 133.041C178.122 132.363 179.147 131.597 180.123 130.765C180.447 130.488 180.89 130.59 181.113 130.99C181.301 131.327 181.273 131.769 181.067 132.065C181.028 132.122 180.983 132.172 180.931 132.217ZM191.328 114.796C190.96 114.624 190.774 114.115 190.913 113.659C191.33 112.289 191.683 110.872 191.961 109.45C192.055 108.977 192.44 108.687 192.821 108.8C193.204 108.916 193.439 109.392 193.346 109.866C193.054 111.358 192.684 112.843 192.246 114.281C192.216 114.38 192.172 114.469 192.12 114.545C191.93 114.818 191.616 114.93 191.328 114.796ZM174.337 136.492C173.178 137.034 171.979 137.493 170.775 137.858C170.393 137.973 170.007 137.683 169.914 137.21C169.82 136.737 170.054 136.259 170.437 136.144C171.586 135.797 172.728 135.358 173.834 134.841C174.202 134.669 174.613 134.899 174.752 135.355C174.847 135.667 174.789 136.005 174.625 136.242C174.55 136.35 174.452 136.438 174.337 136.492ZM167.106 138.684C165.873 138.866 164.62 138.958 163.383 138.955C162.99 138.955 162.671 138.56 162.672 138.073C162.672 137.586 162.991 137.191 163.385 137.192C164.565 137.194 165.761 137.106 166.937 136.932C167.328 136.874 167.682 137.22 167.729 137.703C167.754 137.959 167.687 138.202 167.562 138.383C167.45 138.544 167.29 138.656 167.106 138.684ZM159.659 138.669C158.426 138.481 157.191 138.197 155.99 137.826C155.608 137.708 155.376 137.23 155.472 136.757C155.567 136.285 155.954 135.998 156.335 136.115C157.48 136.469 158.657 136.739 159.833 136.918C160.223 136.978 160.501 137.418 160.453 137.901C160.435 138.081 160.375 138.24 160.287 138.368C160.136 138.584 159.905 138.706 159.659 138.669Z" fill="url(#paint35_linear_78_707)"/>
<path d="M193.84 105.749C193.93 105.62 193.99 105.458 194.007 105.276C194.077 104.526 194.13 103.771 194.163 103.03C194.185 102.544 193.885 102.127 193.492 102.1C193.1 102.074 192.764 102.445 192.741 102.931C192.709 103.637 192.659 104.358 192.592 105.074C192.547 105.558 192.828 105.996 193.218 106.051C193.462 106.086 193.691 105.964 193.84 105.749Z" fill="url(#paint36_linear_78_707)"/>
</g>
<path d="M185.553 92.4613C185.526 92.2737 185.406 92.128 185.254 92.0985L180.917 91.2556C180.107 88.9243 178.99 86.7361 177.581 84.7926L178.78 79.5681C178.823 79.3848 178.766 79.1888 178.64 79.0797L174.321 75.3504C174.195 75.2413 174.027 75.2436 173.903 75.3556L170.358 78.5545C168.398 77.5882 166.354 77.0467 164.307 76.9105L162.17 72.163C162.095 71.9966 161.943 71.9075 161.792 71.9407L156.608 73.0845C156.457 73.1179 156.339 73.2667 156.315 73.455L155.635 78.8242C153.752 79.8276 151.984 81.21 150.415 82.9553L146.195 81.47C146.047 81.4179 145.889 81.4878 145.801 81.644L142.789 86.9912C142.701 87.1476 142.703 87.3556 142.793 87.5096L145.377 91.8995C144.596 94.3262 144.159 96.8573 144.049 99.3919L140.215 102.038C140.08 102.13 140.008 102.319 140.035 102.506L140.959 108.924C140.986 109.112 141.106 109.257 141.258 109.287L145.595 110.13C146.405 112.461 147.521 114.649 148.931 116.593L147.731 121.817C147.689 122 147.746 122.197 147.872 122.306L152.191 126.035C152.317 126.144 152.485 126.142 152.609 126.03L156.154 122.831C158.114 123.797 160.159 124.339 162.205 124.475L164.342 129.222C164.417 129.389 164.569 129.478 164.72 129.445L169.904 128.301C170.055 128.267 170.173 128.119 170.197 127.93L170.877 122.561C172.76 121.558 174.527 120.175 176.097 118.43L180.317 119.915C180.465 119.967 180.623 119.898 180.711 119.741L183.723 114.394C183.811 114.238 183.809 114.03 183.719 113.876L181.135 109.486C181.916 107.059 182.353 104.528 182.463 101.994L186.297 99.3478C186.431 99.2552 186.503 99.067 186.476 98.8795L185.553 92.4613Z" fill="url(#paint37_linear_78_707)"/>
<path d="M322.1 357.699H315.734V442.938H322.1V357.699Z" fill="url(#paint38_linear_78_707)"/>
<path d="M346.794 444.581H291.041C291.041 441.747 292.896 439.45 295.184 439.45H342.65C344.939 439.45 346.794 441.748 346.794 444.581Z" fill="url(#paint39_linear_78_707)"/>
<path d="M355.069 354.741C355.069 359.403 351.988 363.217 348.223 363.217H291.815C288.05 363.217 284.969 359.403 284.969 354.741V347.077C284.969 342.414 288.05 338.6 291.815 338.6H348.223C351.988 338.6 355.069 342.414 355.069 347.077V354.741Z" fill="url(#paint40_linear_78_707)"/>
<path d="M271.923 300.865C271.923 300.865 262.464 302.68 251.829 311.483C250.156 312.868 249.237 315.284 249.49 317.757C250.763 330.247 255.999 370.673 273.265 410.158C274.175 412.24 274.437 414.663 274.035 416.978L271.035 434.263L265.473 440.721H279.801L289.341 408.754L285.262 407.157C282.099 405.918 279.929 402.316 279.871 398.209L279.393 363.917C279.801 348.639 271.827 338.098 271.827 338.098L294.71 336.719L271.923 300.865Z" fill="url(#paint41_linear_78_707)"/>
<path d="M259.878 443.84C258.573 445.954 273.922 448.745 281.677 444.12C281.677 444.12 292.427 420.961 292.427 409.037C292.427 409.037 291.574 406.606 285.262 407.157C285.262 407.157 281.653 434.578 277.841 437.65C274.03 440.722 267.178 437.961 267.178 437.961C267.178 437.961 261.803 440.72 259.878 443.84Z" fill="url(#paint42_linear_78_707)"/>
<path d="M291.815 338.6C291.693 338.339 267.178 334.95 267.178 334.95C267.178 334.95 267.98 344.18 265.473 356.885C262.965 369.59 226.971 424.637 226.971 424.637L230.745 439.45C219.076 444.484 207.598 445.288 196.303 442.016L219.693 424.637C219.693 424.637 241.582 332.271 254.99 315.794L279.564 305.267L291.815 338.6Z" fill="url(#paint43_linear_78_707)"/>
<path d="M229.319 434.461C229.319 434.461 233.382 439.334 230.638 444.756C230.638 444.756 198.45 451.821 189.711 448.615C189.711 448.615 191.526 443.487 201.366 437.65L200.64 438.34C199.721 439.213 200.26 441.033 201.417 440.951C207.901 440.493 221.321 439.022 229.319 434.461Z" fill="url(#paint44_linear_78_707)"/>
<path d="M269.468 137.83C269.468 140.256 287.098 229.999 287.098 229.999L337.327 248.292C347.013 251.82 357.413 246.952 362.793 236.372C376.16 210.086 369.774 175.359 348.535 158.828L341.421 153.291C326.255 141.488 313.163 126.026 302.923 107.828L300.244 103.067L269.468 137.83Z" fill="url(#paint45_linear_78_707)"/>
<path d="M314.847 287.294C314.847 287.294 278.901 238.247 270.804 225.402C266.428 218.459 265.053 209.319 267.077 200.875C270.774 185.455 277.343 169.484 277.942 166.999C278.86 163.189 297.303 163.347 297.303 163.347C297.303 163.347 333.594 192.511 347.853 241.913L331.839 248.085C331.839 248.085 322.363 228.401 313.001 215.887C313.001 215.887 345.53 277.39 347.853 287.214L314.847 287.294Z" fill="url(#paint46_linear_78_707)"/>
<path d="M272.986 140.474C273.178 141.266 280.718 166.256 281.094 166.666C281.471 167.077 291.651 167.754 296.442 163.699L284.557 134.913L272.986 140.474Z" fill="url(#paint47_linear_78_707)"/>
<path d="M261.84 259.079L273.925 244.656L290.642 253.401C290.642 253.401 307.283 256.593 316.807 253.401C326.331 250.208 326.331 250.208 326.331 250.208L347.853 241.912L351.233 253.741C352.091 256.744 351.229 260.078 349.132 261.923C347.27 263.561 345.087 265.362 343.696 266.115C340.862 267.651 273.828 265.053 273.828 265.053L261.84 259.079Z" fill="url(#paint48_linear_78_707)"/>
<path d="M274.942 99.1423C274.942 99.1423 266.224 104.441 260.883 120.851C255.542 137.262 260.416 144.323 266.16 144.935C271.904 145.548 280.417 144.794 288.957 133.836C297.495 122.877 286.301 92.7895 274.942 99.1423Z" fill="url(#paint49_linear_78_707)"/>
<path d="M282.507 125.729C282.507 125.729 288.174 101.87 271.417 102.771L267.634 106.458C267.634 106.458 260.896 93.9248 270.695 87.027C280.495 80.1291 295.794 84.5816 300.856 101.101C305.918 117.62 303.905 128.658 297.135 137.208C290.365 145.758 287.005 136.839 287.005 136.839C287.005 136.839 290.547 129.039 288.78 125.123C287.012 121.207 283.585 126.324 283.585 126.324L282.507 125.729Z" fill="url(#paint50_linear_78_707)"/>
<path d="M282.566 127.247C282.566 127.247 290.368 116.972 293.222 124.34C296.077 131.708 285.463 133.527 281.463 133.808L282.566 127.247Z" fill="url(#paint51_linear_78_707)"/>
<path d="M362.077 322.734C361.467 316.482 357.256 306.302 353.409 298.069L340.591 270.163C328.217 274.738 314.454 278.224 308.548 277.911C308.042 277.885 307.779 278.642 308.139 279.082L314.847 287.295L315.735 287.214C302.41 288.405 289.206 289.896 286.243 291.32C279.845 294.394 255.237 305.267 255.237 305.267L289.004 340.999C289.004 340.999 328.568 341.012 343.388 340.217C358.209 339.422 363.237 334.6 362.077 322.734Z" fill="url(#paint52_linear_78_707)"/>
<path d="M254.485 258.401H293.582C294.205 258.401 294.71 257.776 294.71 257.005V208.594C294.71 207.823 294.205 207.198 293.582 207.198H254.485C253.862 207.198 253.357 207.823 253.357 208.594V257.005C253.357 257.776 253.862 258.401 254.485 258.401Z" fill="url(#paint53_linear_78_707)"/>
</g>
<defs>
<linearGradient id="paint0_linear_78_707" x1="398.627" y1="511.325" x2="125.738" y2="276.716" gradientUnits="userSpaceOnUse">
<stop stop-color="#B37CFF"/>
<stop offset="1" stop-color="#FF9EAA"/>
</linearGradient>
<linearGradient id="paint1_linear_78_707" x1="152.156" y1="311.495" x2="33.2472" y2="380.157" gradientUnits="userSpaceOnUse">
<stop stop-color="#18459F"/>
<stop offset="1" stop-color="#2874B5"/>
</linearGradient>
<linearGradient id="paint2_linear_78_707" x1="166.886" y1="334.543" x2="115.188" y2="397.694" gradientUnits="userSpaceOnUse">
<stop stop-color="#18459F"/>
<stop offset="1" stop-color="#2874B5"/>
</linearGradient>
<linearGradient id="paint3_linear_78_707" x1="127.931" y1="321.988" x2="23.5829" y2="399.855" gradientUnits="userSpaceOnUse">
<stop stop-color="#18459F"/>
<stop offset="1" stop-color="#2874B5"/>
</linearGradient>
<linearGradient id="paint4_linear_78_707" x1="94.3403" y1="278.792" x2="-7.13841" y2="354.517" gradientUnits="userSpaceOnUse">
<stop stop-color="#18459F"/>
<stop offset="1" stop-color="#2874B5"/>
</linearGradient>
<linearGradient id="paint5_linear_78_707" x1="135.224" y1="383.66" x2="112.294" y2="383.243" gradientUnits="userSpaceOnUse">
<stop stop-color="#C4421B"/>
<stop offset="1" stop-color="#5C0E16"/>
</linearGradient>
<linearGradient id="paint6_linear_78_707" x1="108.474" y1="390.678" x2="85.4053" y2="388.08" gradientUnits="userSpaceOnUse">
<stop stop-color="#C4421B"/>
<stop offset="1" stop-color="#5C0E16"/>
</linearGradient>
<linearGradient id="paint7_linear_78_707" x1="78.7973" y1="418.769" x2="88.1677" y2="408.344" gradientUnits="userSpaceOnUse">
<stop stop-color="#2C759E"/>
<stop offset="1" stop-color="#051042"/>
</linearGradient>
<linearGradient id="paint8_linear_78_707" x1="107.682" y1="417.827" x2="116.997" y2="407.464" gradientUnits="userSpaceOnUse">
<stop stop-color="#2C759E"/>
<stop offset="1" stop-color="#051042"/>
</linearGradient>
<linearGradient id="paint9_linear_78_707" x1="128.495" y1="337.216" x2="79.8127" y2="345.489" gradientUnits="userSpaceOnUse">
<stop stop-color="#2B3582"/>
<stop offset="1" stop-color="#150E42"/>
</linearGradient>
<linearGradient id="paint10_linear_78_707" x1="142.227" y1="208.234" x2="18.7127" y2="371.465" gradientUnits="userSpaceOnUse">
<stop stop-color="#FDF53F"/>
<stop offset="1" stop-color="#D93C65"/>
</linearGradient>
<linearGradient id="paint11_linear_78_707" x1="129.263" y1="248.94" x2="101.23" y2="204.57" gradientUnits="userSpaceOnUse">
<stop stop-color="#C4421B"/>
<stop offset="1" stop-color="#5C0E16"/>
</linearGradient>
<linearGradient id="paint12_linear_78_707" x1="97.2034" y1="281.088" x2="113.221" y2="232.576" gradientUnits="userSpaceOnUse">
<stop stop-color="#C4421B"/>
<stop offset="1" stop-color="#5C0E16"/>
</linearGradient>
<linearGradient id="paint13_linear_78_707" x1="193.824" y1="-129.728" x2="123.671" y2="52.7383" gradientUnits="userSpaceOnUse">
<stop stop-color="#CB236D"/>
<stop offset="1" stop-color="#4C246D"/>
</linearGradient>
<linearGradient id="paint14_linear_78_707" x1="115.384" y1="252.325" x2="93.1357" y2="217.11" gradientUnits="userSpaceOnUse">
<stop stop-color="#C4421B"/>
<stop offset="1" stop-color="#5C0E16"/>
</linearGradient>
<linearGradient id="paint15_linear_78_707" x1="220.024" y1="-106.072" x2="130.423" y2="64.0916" gradientUnits="userSpaceOnUse">
<stop stop-color="#CB236D"/>
<stop offset="1" stop-color="#4C246D"/>
</linearGradient>
<linearGradient id="paint16_linear_78_707" x1="103.576" y1="259.194" x2="81.6783" y2="224.535" gradientUnits="userSpaceOnUse">
<stop stop-color="#C4421B"/>
<stop offset="1" stop-color="#5C0E16"/>
</linearGradient>
<linearGradient id="paint17_linear_78_707" x1="185.558" y1="234.126" x2="341.289" y2="415.85" gradientUnits="userSpaceOnUse">
<stop stop-color="#18459F"/>
<stop offset="1" stop-color="#2874B5"/>
</linearGradient>
<linearGradient id="paint18_linear_78_707" x1="66.8279" y1="295.532" x2="221.188" y2="451.536" gradientUnits="userSpaceOnUse">
<stop stop-color="#18459F"/>
<stop offset="1" stop-color="#2874B5"/>
</linearGradient>
<linearGradient id="paint19_linear_78_707" x1="84.1128" y1="172.066" x2="302.222" y2="357.699" gradientUnits="userSpaceOnUse">
<stop stop-color="#18459F"/>
<stop offset="1" stop-color="#2874B5"/>
</linearGradient>
<linearGradient id="paint20_linear_78_707" x1="106.821" y1="327.937" x2="223.633" y2="80.5947" gradientUnits="userSpaceOnUse">
<stop stop-color="#C4421B"/>
<stop offset="1" stop-color="#5C0E16"/>
</linearGradient>
<linearGradient id="paint21_linear_78_707" x1="110.468" y1="244.241" x2="13.1419" y2="403.154" gradientUnits="userSpaceOnUse">
<stop stop-color="#FDF53F"/>
<stop offset="1" stop-color="#D93C65"/>
</linearGradient>
<linearGradient id="paint22_linear_78_707" x1="176.93" y1="229.839" x2="75.5068" y2="398.479" gradientUnits="userSpaceOnUse">
<stop stop-color="#53D8FF"/>
<stop offset="1" stop-color="#3840F7"/>
</linearGradient>
<linearGradient id="paint23_linear_78_707" x1="155.106" y1="132.69" x2="266.788" y2="378.224" gradientUnits="userSpaceOnUse">
<stop stop-color="#CB236D"/>
<stop offset="1" stop-color="#4C246D"/>
</linearGradient>
<linearGradient id="paint24_linear_78_707" x1="211.373" y1="240.574" x2="435.073" y2="464.211" gradientUnits="userSpaceOnUse">
<stop stop-color="#CB236D"/>
<stop offset="1" stop-color="#4C246D"/>
</linearGradient>
<linearGradient id="paint25_linear_78_707" x1="195.935" y1="205.718" x2="210.812" y2="345.526" gradientUnits="userSpaceOnUse">
<stop stop-color="#A737D5"/>
<stop offset="1" stop-color="#EF497A"/>
</linearGradient>
<linearGradient id="paint26_linear_78_707" x1="137.544" y1="110.941" x2="184.894" y2="251.887" gradientUnits="userSpaceOnUse">
<stop stop-color="#53D8FF"/>
<stop offset="1" stop-color="#3840F7"/>
</linearGradient>
<linearGradient id="paint27_linear_78_707" x1="121.72" y1="71.3521" x2="68.1302" y2="121.71" gradientUnits="userSpaceOnUse">
<stop stop-color="#B37CFF"/>
<stop offset="1" stop-color="#F895E7"/>
</linearGradient>
<linearGradient id="paint28_linear_78_707" x1="63.6246" y1="122.136" x2="60.4947" y2="125.077" gradientUnits="userSpaceOnUse">
<stop stop-color="#B37CFF"/>
<stop offset="1" stop-color="#F895E7"/>
</linearGradient>
<linearGradient id="paint29_linear_78_707" x1="72.8889" y1="164.551" x2="70.7411" y2="166.569" gradientUnits="userSpaceOnUse">
<stop stop-color="#B37CFF"/>
<stop offset="1" stop-color="#F895E7"/>
</linearGradient>
<linearGradient id="paint30_linear_78_707" x1="137.702" y1="128.136" x2="82.5033" y2="180.006" gradientUnits="userSpaceOnUse">
<stop stop-color="#B37CFF"/>
<stop offset="1" stop-color="#F895E7"/>
</linearGradient>
<linearGradient id="paint31_linear_78_707" x1="152.935" y1="133.321" x2="149.845" y2="136.224" gradientUnits="userSpaceOnUse">
<stop stop-color="#B37CFF"/>
<stop offset="1" stop-color="#F895E7"/>
</linearGradient>
<linearGradient id="paint32_linear_78_707" x1="-75.5121" y1="100.117" x2="345.893" y2="146.031" gradientUnits="userSpaceOnUse">
<stop stop-color="#CB236D"/>
<stop offset="1" stop-color="#FF9EAA"/>
</linearGradient>
<linearGradient id="paint33_linear_78_707" x1="188.77" y1="78.8263" x2="187.242" y2="80.2618" gradientUnits="userSpaceOnUse">
<stop stop-color="#B37CFF"/>
<stop offset="1" stop-color="#F895E7"/>
</linearGradient>
<linearGradient id="paint34_linear_78_707" x1="173.291" y1="61.1146" x2="143.353" y2="89.2468" gradientUnits="userSpaceOnUse">
<stop stop-color="#B37CFF"/>
<stop offset="1" stop-color="#F895E7"/>
</linearGradient>
<linearGradient id="paint35_linear_78_707" x1="189.316" y1="104.943" x2="155.146" y2="137.052" gradientUnits="userSpaceOnUse">
<stop stop-color="#B37CFF"/>
<stop offset="1" stop-color="#F895E7"/>
</linearGradient>
<linearGradient id="paint36_linear_78_707" x1="194.311" y1="102.731" x2="191.974" y2="104.927" gradientUnits="userSpaceOnUse">
<stop stop-color="#B37CFF"/>
<stop offset="1" stop-color="#F895E7"/>
</linearGradient>
<linearGradient id="paint37_linear_78_707" x1="-71.3046" y1="61.5113" x2="350.101" y2="107.425" gradientUnits="userSpaceOnUse">
<stop stop-color="#CB236D"/>
<stop offset="1" stop-color="#FF9EAA"/>
</linearGradient>
<linearGradient id="paint38_linear_78_707" x1="313.948" y1="439.022" x2="334.768" y2="333.252" gradientUnits="userSpaceOnUse">
<stop stop-color="#2B3582"/>
<stop offset="1" stop-color="#150E42"/>
</linearGradient>
<linearGradient id="paint39_linear_78_707" x1="319.465" y1="440.108" x2="340.286" y2="334.336" gradientUnits="userSpaceOnUse">
<stop stop-color="#2B3582"/>
<stop offset="1" stop-color="#150E42"/>
</linearGradient>
<linearGradient id="paint40_linear_78_707" x1="308.835" y1="438.016" x2="329.655" y2="332.245" gradientUnits="userSpaceOnUse">
<stop stop-color="#53D8FF"/>
<stop offset="1" stop-color="#3840F7"/>
</linearGradient>
<linearGradient id="paint41_linear_78_707" x1="249.448" y1="370.793" x2="294.71" y2="370.793" gradientUnits="userSpaceOnUse">
<stop stop-color="#F9B776"/>
<stop offset="1" stop-color="#F47960"/>
</linearGradient>
<linearGradient id="paint42_linear_78_707" x1="277.142" y1="407.311" x2="266.958" y2="533.42" gradientUnits="userSpaceOnUse">
<stop stop-color="#CB236D"/>
<stop offset="1" stop-color="#4C246D"/>
</linearGradient>
<linearGradient id="paint43_linear_78_707" x1="196.303" y1="374.621" x2="291.815" y2="374.621" gradientUnits="userSpaceOnUse">
<stop stop-color="#F9B776"/>
<stop offset="1" stop-color="#F47960"/>
</linearGradient>
<linearGradient id="paint44_linear_78_707" x1="212.9" y1="402.123" x2="202.716" y2="528.233" gradientUnits="userSpaceOnUse">
<stop stop-color="#CB236D"/>
<stop offset="1" stop-color="#4C246D"/>
</linearGradient>
<linearGradient id="paint45_linear_78_707" x1="1078.78" y1="-929.94" x2="837.821" y2="-699.702" gradientUnits="userSpaceOnUse">
<stop stop-color="#CB236D"/>
<stop offset="0.3103" stop-color="#4C246D"/>
</linearGradient>
<linearGradient id="paint46_linear_78_707" x1="306.299" y1="217.301" x2="327.004" y2="382.591" gradientUnits="userSpaceOnUse">
<stop stop-color="#FDF53F"/>
<stop offset="1" stop-color="#D93C65"/>
</linearGradient>
<linearGradient id="paint47_linear_78_707" x1="290.278" y1="196.29" x2="280.516" y2="145.704" gradientUnits="userSpaceOnUse">
<stop stop-color="#F9B776"/>
<stop offset="1" stop-color="#F47960"/>
</linearGradient>
<linearGradient id="paint48_linear_78_707" x1="362.091" y1="238.632" x2="221.388" y2="267.501" gradientUnits="userSpaceOnUse">
<stop stop-color="#F9B776"/>
<stop offset="0.532" stop-color="#F47960"/>
</linearGradient>
<linearGradient id="paint49_linear_78_707" x1="261.224" y1="113.306" x2="310.837" y2="137.32" gradientUnits="userSpaceOnUse">
<stop stop-color="#F9B776"/>
<stop offset="1" stop-color="#F47960"/>
</linearGradient>
<linearGradient id="paint50_linear_78_707" x1="917.659" y1="-931.781" x2="687.71" y2="-684.925" gradientUnits="userSpaceOnUse">
<stop stop-color="#CB236D"/>
<stop offset="0.3103" stop-color="#4C246D"/>
</linearGradient>
<linearGradient id="paint51_linear_78_707" x1="270.123" y1="94.7589" x2="310.973" y2="147.794" gradientUnits="userSpaceOnUse">
<stop stop-color="#F9B776"/>
<stop offset="1" stop-color="#F47960"/>
</linearGradient>
<linearGradient id="paint52_linear_78_707" x1="255.237" y1="305.581" x2="362.237" y2="305.581" gradientUnits="userSpaceOnUse">
<stop stop-color="#2B3582"/>
<stop offset="1" stop-color="#150E42"/>
</linearGradient>
<linearGradient id="paint53_linear_78_707" x1="288.886" y1="171.089" x2="237.18" y2="311.214" gradientUnits="userSpaceOnUse">
<stop stop-color="#53D8FF"/>
<stop offset="1" stop-color="#3840F7"/>
</linearGradient>
<clipPath id="clip0_78_707">
<rect width="424" height="525" fill="white"/>
</clipPath>
</defs>
</svg>
